<?xml version="1.0" encoding="UTF-8"?>
<svg id="Layer_2" data-name="Layer 2" xmlns="http://www.w3.org/2000/svg" viewBox="0 0 361.3 398.92">
  <defs>
    <style>
      .cls-1 {
        fill: #fff;
        stroke-width: 0px;
      }
    </style>
  </defs>
  <g id="Layer_2-2" data-name="Layer 2">
    <path class="cls-1" d="m80.45,0S30.4,19.4,15.59,86.3s11.74,89.36,11.74,89.36c0,0,61.79.21,89.36,46.83,0,0,31.66,29.26,14.81,96.66-16.85,67.4-97.53,70.98-97.53,70.98,0,0-25.53,1.02-33.19,0s41.87,18.38,96,2.55,66.89-54.64,66.89-54.64c0,0-33.7-45.96,0-107.23s115.91-52.09,115.91-52.09c0,0,64.85,16.85,81.7,75.57,0,0,.51-44.43-41.36-79.66s-86.3-32.17-86.3-32.17c0,0-1.53,20.43-39.32,41.87s-85.28,8.68-85.28,8.68c0,0-63.32-27.57-70.47-77.62-4.67-32.68.86-54.72,5.08-66.15,1.67-4.52,11.99-24.96,15.99-28.32L80.45,0Z"/>
  </g>
</svg>